# xmcd CD database file
#
# Track frame offsets:
#	150
#	19730
#	39580
#	63717
#	86725
#	111300
#	128367
#	147195
#	167240
#	197200
#
# Disc length: 2906 seconds
#
# Revision: 0
# Processed by: cddbd v1.5PL3 Copyright (c) Steve Scherf et al.
# Submitted via: CDex 1.51
#
DISCID=8c0b580a
DTITLE=太田貴子 - DIAMOND COLLECTION 太田貴子
DYEAR=1988
DGENRE=seiyu(J)
TTITLE0=Truth
TTITLE1=街角のビリー･ザ･キッド
TTITLE2=1988 From Tokyo
TTITLE3=BACKSEAT LOVERS
TTITLE4=Guitar Boy (In The Rain)
TTITLE5=Runaway Kids
TTITLE6=WANT
TTITLE7=ひとりぼっちのS.O.S
TTITLE8=15才のSuicide
TTITLE9=After Hours
EXTD=YEAR: 1988.06.25
EXTT0=
EXTT1=
EXTT2=
EXTT3=
EXTT4=
EXTT5=
EXTT6=
EXTT7=
EXTT8=
EXTT9=
PLAYORDER=
